<svg width="80" height="16" viewBox="0 0 80 16" fill="none" xmlns="http://www.w3.org/2000/svg">
<g clip-path="url(#clip0_110_16)">
<path d="M6.8753 0.523499C7.55635 0.523499 8.1855 0.575667 8.76277 0.732174C9.34003 0.836512 9.81352 1.05171 10.2351 1.31255C10.6567 1.5734 10.9681 1.9451 11.1821 2.42114C11.3897 2.89718 11.4999 3.47756 11.4999 4.11011C11.4999 4.84699 11.3442 5.47954 10.9745 5.95558C10.6567 6.43162 10.1378 6.85549 9.50219 7.16851C10.3973 7.42935 11.0783 7.90539 11.4934 8.53794C11.9085 9.17049 12.1745 9.95954 12.1745 10.8595C12.1745 11.5963 12.0188 12.2289 11.7529 12.7571C11.4934 13.2853 11.0718 13.7613 10.5983 14.0744C10.1249 14.3939 9.54759 14.6547 8.91844 14.8112C8.28928 14.9677 7.66013 15.0721 7.03097 15.0721L0 15.0851V0.523499H6.8753ZM6.4537 6.43162C7.03097 6.43162 7.50446 6.27511 7.86768 6.00775C8.23091 5.74038 8.39306 5.27086 8.39306 4.69049C8.39306 4.37095 8.34117 4.05794 8.23739 3.84926C8.13361 3.64059 7.97795 3.47756 7.7639 3.32105C7.55635 3.21672 7.3423 3.11238 7.08286 3.06021C6.82341 3.00804 6.55748 3.00804 6.24615 3.00804H3.20415V6.43814C3.20415 6.43162 6.4537 6.43162 6.4537 6.43162ZM6.60937 12.6593C6.92719 12.6593 7.23853 12.6071 7.50446 12.5549C7.7639 12.5028 8.02983 12.3984 8.23739 12.2354C8.44495 12.0724 8.6071 11.9159 8.76277 11.655C8.86655 11.3942 8.97032 11.0746 8.97032 10.7029C8.97032 9.96606 8.76277 9.43785 8.34117 9.06615C7.91957 8.74661 7.3423 8.59011 6.66126 8.59011H3.20415V12.6528H6.60937V12.6593Z" fill="#323232"/>
<path d="M16.7407 12.6071C17.1623 13.031 17.7915 13.2397 18.6282 13.2397C19.2054 13.2397 19.7308 13.0832 20.1524 12.8158C20.574 12.4963 20.8335 12.1832 20.9372 11.8637H23.5058C23.0842 13.1288 22.455 14.0287 21.6183 14.6091C20.7816 15.1373 19.7827 15.4503 18.5763 15.4503C17.7396 15.4503 17.0002 15.2938 16.3191 15.0264C15.6381 14.7656 15.1127 14.3939 14.6392 13.8657C14.1657 13.3896 13.8025 12.8093 13.5885 12.1246C13.329 11.4398 13.2187 10.703 13.2187 9.85521C13.2187 9.06615 13.3225 8.32275 13.5885 7.63803C13.8544 6.95332 14.2176 6.37294 14.6911 5.84473C15.1646 5.36869 15.7418 4.94482 16.371 4.68397C17.052 4.42313 17.7331 4.2601 18.5763 4.2601C19.4714 4.2601 20.2562 4.41661 20.9372 4.78831C21.6183 5.16001 22.1437 5.57736 22.5653 6.20991C22.9869 6.79029 23.2982 7.475 23.5122 8.21189C23.616 8.94877 23.6679 9.69218 23.616 10.5334H16.0078C16.0078 11.3942 16.3191 12.1832 16.7407 12.6071ZM20.0486 7.06418C19.6789 6.69247 19.1017 6.4838 18.4206 6.4838C17.9471 6.4838 17.5839 6.58813 17.2661 6.74464C16.9483 6.90115 16.7407 7.11634 16.5332 7.32502C16.3256 7.53369 16.2153 7.80106 16.1634 8.0619C16.1116 8.32275 16.0597 8.53795 16.0597 8.74662H20.7816C20.6778 7.96409 20.4119 7.43588 20.0486 7.06418ZM15.4305 1.52776H21.307V2.94936H15.4305V1.52776Z" fill="#323232"/>
<path d="M27.7088 0.523499V6.00775H27.7607C28.1304 5.3752 28.5974 4.95133 29.1746 4.69049C29.7519 4.42964 30.2773 4.26661 30.8545 4.26661C31.6394 4.26661 32.2685 4.37095 32.742 4.58615C33.2155 4.79482 33.6371 5.11436 33.8965 5.48606C34.156 5.85776 34.37 6.32728 34.4738 6.85549C34.5776 7.3837 34.6295 7.96408 34.6295 8.6488V15.1373H31.7431V9.17701C31.7431 8.27709 31.5875 7.64455 31.3215 7.2272C31.0556 6.80984 30.5951 6.58813 29.9141 6.58813C29.1292 6.58813 28.552 6.84897 28.2341 7.27284C27.8644 7.74888 27.7088 8.53794 27.7088 9.59436V15.1373H24.8224V0.523499H27.7088Z" fill="#323232"/>
<path d="M36.7375 6.11861C37.0553 5.64256 37.4185 5.32955 37.892 5.01002C38.3655 4.74917 38.8909 4.53398 39.4681 4.42964C40.0454 4.3253 40.6227 4.27313 41.1999 4.27313C41.7253 4.27313 42.2507 4.3253 42.828 4.37747C43.3533 4.42964 43.8787 4.58615 44.3003 4.80134C44.7738 5.01002 45.0851 5.32955 45.403 5.70125C45.6624 6.07296 45.8245 6.60117 45.8245 7.23371V12.7767C45.8245 13.2527 45.8764 13.7287 45.9283 14.1461C45.9802 14.57 46.1359 14.9351 46.298 15.1503H43.3598C43.256 15.046 43.2041 14.8308 43.1523 14.6743C43.1004 14.5178 43.1004 14.3026 43.1004 14.1461C42.6269 14.6221 42.1015 14.9351 41.4724 15.1503C40.8432 15.359 40.214 15.4112 39.5849 15.4112C39.0595 15.4112 38.6379 15.359 38.1709 15.2025C37.7493 15.0982 37.3861 14.883 37.0164 14.6221C36.6986 14.3613 36.4391 14.0417 36.2316 13.6179C36.0759 13.194 35.9721 12.7767 35.9721 12.1963C35.9721 11.6159 36.0759 11.0877 36.2899 10.716C36.4975 10.3443 36.7634 10.0313 37.0747 9.7639C37.3926 9.55523 37.8077 9.34003 38.2293 9.23569C38.6509 9.13136 39.066 9.02702 39.5395 8.97485C39.9611 8.92268 40.3762 8.87051 40.7978 8.81834C41.2194 8.76617 41.5826 8.71401 41.9004 8.66184C42.2183 8.5575 42.4777 8.45316 42.6853 8.29013C42.8928 8.13363 42.9447 7.91843 42.9447 7.60542C42.9447 7.28588 42.8928 7.02504 42.789 6.86853C42.6853 6.71203 42.5296 6.549 42.3674 6.44466C42.2118 6.34032 41.9977 6.28815 41.7902 6.23599C41.5826 6.18382 41.3167 6.18382 41.0572 6.18382C40.48 6.18382 40.0584 6.28815 39.747 6.55552C39.4292 6.81636 39.2217 7.24024 39.1698 7.76845H36.2834C36.264 7.11633 36.4715 6.53596 36.7375 6.11861ZM42.4582 10.2334C42.3026 10.2856 42.0885 10.3378 41.881 10.3899C41.6734 10.4421 41.4594 10.4421 41.1999 10.4943C40.9924 10.5464 40.7264 10.5464 40.5189 10.5986C40.3113 10.6508 40.0973 10.7029 39.8897 10.7551C39.6822 10.8073 39.4681 10.9116 39.3644 11.016C39.2087 11.1203 39.1049 11.2768 38.9946 11.4398C38.839 11.6485 38.839 11.8637 38.839 12.1245C38.839 12.3854 38.8909 12.6006 38.9946 12.7571C39.0984 12.9136 39.2022 13.0766 39.3644 13.181C39.52 13.2853 39.7341 13.3375 39.9416 13.3896C40.1492 13.4418 40.3632 13.4418 40.6227 13.4418C41.1999 13.4418 41.6215 13.3375 41.9329 13.181C42.2507 12.9723 42.4582 12.7571 42.6139 12.4962C42.7696 12.2354 42.8734 11.968 42.8734 11.7072C42.9252 11.4463 42.9252 11.2312 42.9252 11.0746V9.96606C42.7696 10.0704 42.6139 10.1813 42.4582 10.2334Z" fill="#323232"/>
<path d="M50.1703 4.53398V6.01427H50.2221C50.5919 5.38172 51.0589 4.95785 51.6361 4.697C52.2134 4.43616 52.8425 4.27313 53.4198 4.27313C54.2046 4.27313 54.8338 4.37747 55.3073 4.59267C55.8327 4.80134 56.2024 5.12088 56.4618 5.49258C56.7213 5.86428 56.9353 6.3338 57.091 6.86201C57.1947 7.39022 57.2466 7.9706 57.2466 8.65532V15.1438H54.3603V9.18353C54.3603 8.28361 54.2046 7.65107 53.9387 7.23371C53.6793 6.80984 53.2058 6.549 52.4664 6.549C51.6815 6.549 51.1043 6.86853 50.7346 7.33805C50.3648 7.81409 50.2092 8.60315 50.2092 9.65957V15.2025H47.3228V4.53398C47.3358 4.53398 50.1703 4.53398 50.1703 4.53398Z" fill="#323232"/>
<path d="M63.7133 6.43162C63.2398 6.43162 62.8766 6.53596 62.5588 6.75116C62.241 6.95983 61.9815 7.2272 61.774 7.59238C61.5664 7.91192 61.4561 8.2771 61.3524 8.70097C61.2486 9.12484 61.2486 9.49002 61.2486 9.91389C61.2486 10.2856 61.3005 10.7029 61.3524 11.0747C61.4561 11.4985 61.5599 11.8115 61.774 12.1311C61.9815 12.4506 62.1956 12.7114 62.5069 12.9201C62.8247 13.1288 63.1879 13.2397 63.6614 13.2397C64.3425 13.2397 64.8678 13.031 65.2894 12.6593C65.6592 12.2876 65.9186 11.7594 65.9705 11.0747H68.753C68.5455 12.4963 68.0201 13.5527 67.125 14.2961C66.2299 15.033 65.0754 15.4047 63.6614 15.4047C62.8766 15.4047 62.1372 15.2482 61.508 14.9808C60.827 14.7199 60.3016 14.3482 59.8281 13.8722C59.3546 13.3962 58.9914 12.8158 58.7255 12.1832C58.466 11.4985 58.3558 10.8138 58.3558 10.0182C58.3558 9.17701 58.4595 8.4336 58.7255 7.74889C58.9849 7.06417 59.3027 6.43162 59.7762 5.90341C60.2497 5.3752 60.827 5.0035 61.4561 4.69049C62.1372 4.42964 62.8701 4.26662 63.7133 4.26662C64.3425 4.26662 64.9197 4.37095 65.497 4.52746C66.0743 4.68397 66.5996 4.95133 67.0212 5.26435C67.4947 5.58388 67.858 6.00123 68.1239 6.52944C68.3833 7.00548 68.5455 7.63803 68.5974 8.32274H65.7629C65.6527 7.06417 64.9716 6.43162 63.7133 6.43162Z" fill="#323232"/>
<path d="M73.1052 12.6071C73.5268 13.031 74.2079 13.2396 74.9927 13.2396C75.57 13.2396 76.0953 13.0831 76.5169 12.8158C76.9385 12.4962 77.198 12.1832 77.3018 11.8637H79.8184C79.3968 13.1288 78.7676 14.0287 77.9309 14.6091C77.0942 15.1373 76.0953 15.4503 74.8889 15.4503C74.0522 15.4503 73.3128 15.2938 72.6317 15.0264C71.9507 14.7656 71.4253 14.3939 70.9518 13.8657C70.4783 13.3896 70.1151 12.8093 69.9011 12.1245C69.6416 11.4398 69.5314 10.7029 69.5314 9.8552C69.5314 9.06614 69.6351 8.32273 69.9011 7.63802C70.1605 6.9533 70.5302 6.37292 71.0037 5.84471C71.4772 5.36867 72.0545 4.9448 72.6836 4.68396C73.3647 4.42311 74.0976 4.26009 74.8889 4.26009C75.784 4.26009 76.5688 4.41659 77.198 4.7883C77.879 5.16 78.4044 5.57735 78.826 6.2099C79.2476 6.79027 79.5589 7.47499 79.773 8.21188C79.9805 8.94876 80.0324 9.74434 79.9805 10.5856H72.3723C72.3723 11.3942 72.6836 12.1832 73.1052 12.6071ZM76.4651 7.06416C76.0953 6.69246 75.5181 6.48378 74.837 6.48378C74.3635 6.48378 74.0003 6.58812 73.6825 6.74463C73.3647 6.90113 73.1052 7.11633 72.9496 7.32501C72.7939 7.53368 72.6317 7.80105 72.5799 8.06189C72.528 8.32273 72.4761 8.53793 72.4761 8.74661H77.198C77.0423 7.96407 76.7764 7.43586 76.4651 7.06416Z" fill="#323232"/>
</g>
<defs>
<clipPath id="clip0_110_16">
<rect width="80" height="14.9333" fill="white" transform="translate(0 0.523499)"/>
</clipPath>
</defs>
</svg>
