<svg width="90" height="21" viewBox="0 0 90 21" fill="none" xmlns="http://www.w3.org/2000/svg">
<g clip-path="url(#clip0_110_24)">
<path d="M44.8443 17.2295C45.0014 16.8208 45.0803 16.1527 45.0803 15.2255V11.3189C45.0803 10.4191 45.0014 9.76141 44.8443 9.34541C44.6869 8.92965 44.4098 8.72156 44.0131 8.72156C43.6299 8.72156 43.3593 8.92965 43.2022 9.34541C43.0449 9.76141 42.9662 10.4191 42.9662 11.3189V15.2255C42.9662 16.1527 43.0413 16.8208 43.1921 17.2295C43.3423 17.6387 43.6159 17.843 44.0131 17.843C44.4098 17.843 44.6869 17.6387 44.8443 17.2295ZM41.6629 19.193C41.0947 18.8117 40.6909 18.2182 40.4518 17.4136C40.2122 16.6094 40.0927 15.539 40.0927 14.2028V12.3825C40.0927 11.0327 40.2292 9.94866 40.5031 9.13067C40.7767 8.3126 41.2041 7.71625 41.786 7.34116C42.3675 6.96633 43.1304 6.77873 44.0748 6.77873C45.0052 6.77873 45.7509 6.96975 46.312 7.35135C46.8729 7.73308 47.2835 8.32981 47.5437 9.14088C47.8033 9.95224 47.9335 11.0327 47.9335 12.3825V14.2028C47.9335 15.539 47.8069 16.6129 47.5538 17.424C47.3006 18.2353 46.8899 18.8284 46.3222 19.2031C45.7542 19.5781 44.9846 19.7657 44.0131 19.7657C43.0139 19.7657 42.2304 19.5746 41.6629 19.193Z" fill="#252323"/>
<path d="M85.6186 8.95597C85.4752 9.13317 85.379 9.42301 85.3313 9.82507C85.2831 10.2274 85.2597 10.8374 85.2597 11.6555V12.5554H87.3325V11.6555C87.3325 10.8512 87.3051 10.2411 87.2505 9.82507C87.1957 9.40931 87.0967 9.11633 86.9531 8.94575C86.8092 8.77526 86.5868 8.68993 86.2858 8.68993C85.9846 8.68993 85.7623 8.77884 85.6186 8.95597ZM85.2597 14.2326V14.8666C85.2597 15.6713 85.2831 16.2745 85.3313 16.6766C85.379 17.0789 85.478 17.3721 85.629 17.5561C85.7795 17.7401 86.0118 17.8323 86.3269 17.8323C86.7508 17.8323 87.0419 17.6686 87.1993 17.3412C87.3564 17.0141 87.4419 16.4687 87.4556 15.705L89.8984 15.8483C89.9121 15.9577 89.919 16.1076 89.919 16.2981C89.919 17.4573 89.6009 18.3232 88.9644 18.8958C88.3284 19.4682 87.4282 19.7547 86.2653 19.7547C84.8696 19.7547 83.891 19.3185 83.3301 18.4457C82.7687 17.5734 82.4883 16.2235 82.4883 14.3962V12.2077C82.4883 10.3262 82.7791 8.95274 83.3608 8.08658C83.9423 7.22087 84.9379 6.78794 86.3475 6.78794C87.3188 6.78794 88.0647 6.96523 88.5847 7.31965C89.1045 7.67442 89.4708 8.22663 89.6829 8.97628C89.8951 9.72629 90.0012 10.7627 90.0012 12.0851V14.2326H85.2597Z" fill="#252323"/>
<path d="M34.7653 13.9978L31.5425 2.40131H34.3546L35.4835 7.65759C35.7711 8.95319 35.983 10.0575 36.1198 10.9708H36.202C36.2977 10.3164 36.5099 9.21895 36.8383 7.67809L38.0083 2.40131H40.8204L37.5568 13.9978V19.5611H34.7653V13.9978Z" fill="#252323"/>
<path d="M57.0795 7.02399V19.5611H54.8626L54.6162 18.0273H54.5548C53.9525 19.1861 53.0493 19.7655 51.8452 19.7655C51.0105 19.7655 50.3948 19.4931 49.9978 18.9475C49.6009 18.4024 49.4027 17.55 49.4027 16.391V7.02399H52.2353V16.2273C52.2353 16.7867 52.297 17.1854 52.4201 17.4237C52.5432 17.6626 52.7485 17.7817 53.0358 17.7817C53.2822 17.7817 53.5182 17.707 53.7439 17.5566C53.9698 17.4067 54.1373 17.2162 54.2469 16.9843V7.02399H57.0795Z" fill="#252323"/>
<path d="M71.6092 7.02399V19.5611H69.3923L69.1459 18.0273H69.0847C68.4819 19.1861 67.5789 19.7655 66.3749 19.7655C65.5401 19.7655 64.9244 19.4931 64.5275 18.9475C64.1306 18.4024 63.9323 17.55 63.9323 16.391V7.02399H66.765V16.2273C66.765 16.7867 66.8264 17.1854 66.9495 17.4237C67.0728 17.6626 67.2781 17.7817 67.5654 17.7817C67.8119 17.7817 68.0479 17.707 68.2735 17.5566C68.4994 17.4067 68.6669 17.2162 68.7766 16.9843V7.02399H71.6092Z" fill="#252323"/>
<path d="M64.7768 4.67196H61.9647V19.5611H59.1937V4.67196H56.3816V2.40169H64.7768V4.67196Z" fill="#252323"/>
<path d="M78.3878 14.142C78.3878 15.0556 78.3498 15.7715 78.2746 16.2894C78.1995 16.8079 78.0728 17.1759 77.8949 17.3938C77.717 17.6121 77.4772 17.721 77.1767 17.721C76.9437 17.721 76.7282 17.6668 76.53 17.5573C76.3313 17.4484 76.1709 17.2849 76.0475 17.0665V9.94921C76.1432 9.60858 76.3074 9.32893 76.5402 9.11063C76.7729 8.89288 77.0257 8.78352 77.2995 8.78352C77.5871 8.78352 77.8092 8.8961 77.9668 9.12092C78.1239 9.34586 78.2335 9.72427 78.2952 10.2562C78.3568 10.7878 78.3878 11.5445 78.3878 12.5262V14.142ZM80.9842 9.02805C80.8129 8.23748 80.5357 7.66486 80.1527 7.31009C79.7695 6.95586 79.2426 6.77847 78.5723 6.77847C78.0523 6.77847 77.5665 6.92514 77.115 7.21811C76.6635 7.51137 76.3143 7.8966 76.0681 8.37376H76.0473L76.0475 1.76762H73.3177V19.5608H75.6575L75.945 18.3748H76.0064C76.2252 18.7974 76.5536 19.1315 76.9917 19.3769C77.4295 19.6223 77.9155 19.745 78.4492 19.745C79.4068 19.745 80.1116 19.3052 80.5634 18.4259C81.0149 17.5463 81.2408 16.1729 81.2408 14.3048V12.3209C81.2408 10.9167 81.155 9.81909 80.9842 9.02805Z" fill="#252323"/>
<path d="M28.1034 4.10649C27.7733 2.87607 26.8008 1.90692 25.5658 1.57807C23.3273 0.980417 14.3516 0.980417 14.3516 0.980417C14.3516 0.980417 5.37588 0.980417 3.13741 1.57807C1.90253 1.90692 0.929853 2.87607 0.599812 4.10649C0 6.33686 0 10.9902 0 10.9902C0 10.9902 0 15.6437 0.599812 17.8739C0.929853 19.1043 1.90253 20.0735 3.13741 20.4023C5.37588 21.0001 14.3516 21.0001 14.3516 21.0001C14.3516 21.0001 23.3273 21.0001 25.5658 20.4023C26.8008 20.0735 27.7733 19.1043 28.1034 17.8739C28.703 15.6437 28.703 10.9902 28.703 10.9902C28.703 10.9902 28.703 6.33686 28.1034 4.10649Z" fill="#252323"/>
<path d="M11.4813 15.2802V6.70029L18.9383 10.9903L11.4813 15.2802Z" fill="white"/>
</g>
<defs>
<clipPath id="clip0_110_24">
<rect width="90" height="20.0197" fill="white" transform="translate(0 0.980316)"/>
</clipPath>
</defs>
</svg>
